<svg width="21" height="21" viewBox="0 0 21 21" fill="none" xmlns="http://www.w3.org/2000/svg">
<path fill-rule="evenodd" clip-rule="evenodd" d="M20.6244 2.51163C20.9794 2.15661 20.9794 1.58101 20.6244 1.22599C20.2694 0.870958 19.6937 0.870958 19.3386 1.22599L10.8906 9.67407L2.44254 1.22599C2.08752 0.870958 1.51192 0.870958 1.1569 1.22599C0.801866 1.58101 0.801866 2.15661 1.1569 2.51163L9.60497 10.9597L1.1569 19.4077C0.801866 19.7628 0.801866 20.3384 1.1569 20.6935C1.51192 21.0484 2.08752 21.0484 2.44254 20.6935L10.8906 12.2454L19.3386 20.6935C19.6937 21.0484 20.2694 21.0484 20.6244 20.6935C20.9794 20.3384 20.9794 19.7628 20.6244 19.4077L12.1763 10.9597L20.6244 2.51163Z" fill="#999999"/>
</svg>
