<svg xmlns="http://www.w3.org/2000/svg" version="1.1" xmlns:xlink="http://www.w3.org/1999/xlink" xmlns:svgjs="http://svgjs.dev/svgjs" id="BgenPttrnSvgRootPreview" width="100%" height="100%"><defs><pattern x="0" y="0" width="1" height="1" patternUnits="userSpaceOnUse" id="BgenPttrnLayer1"><g id="PatternRootContent1"><g id="BgenPttrnLayer1background"><rect width="1" height="1" id="BgenPttrnBackground1" class="color_1 fill_color_1" fill="#b0b0b0"></rect></g></g></pattern><pattern x="0" y="0" width="65" height="114" patternUnits="userSpaceOnUse" id="BgenPttrnLayer2" patternTransform="matrix(1,0,0,1,0,0)"><g id="PatternRootContent2"><g id="BgenPttrnLayer2Element3"><use xlink:href="#BgenPttrnElement3" x="30.126693725585938" y="-60.303842544555664" transform="translate(65, -28.5) scale(1) translate(-65, 28.5) rotate(90, 65, -28.5)"></use><use xlink:href="#BgenPttrnElement3" x="-34.87330627441406" y="-60.303842544555664" transform="translate(0, -28.5) scale(1) translate(0, 28.5) rotate(90, 0, -28.5)"></use><use xlink:href="#BgenPttrnElement3" x="-2.3733062744140625" y="-3.303842544555664" transform="translate(32.5, 28.5) scale(1) translate(-32.5, -28.5) rotate(90, 32.5, 28.5)"></use><use xlink:href="#BgenPttrnElement3" x="-67.37330627441406" y="-3.303842544555664" transform="translate(-32.5, 28.5) scale(1) translate(32.5, -28.5) rotate(90, -32.5, 28.5)"></use><use xlink:href="#BgenPttrnElement3" x="62.62669372558594" y="-3.303842544555664" transform="translate(97.5, 28.5) scale(1) translate(-97.5, -28.5) rotate(90, 97.5, 28.5)"></use><use xlink:href="#BgenPttrnElement3" x="30.126693725585938" y="53.696157455444336" transform="translate(65, 85.5) scale(1) translate(-65, -85.5) rotate(90, 65, 85.5)"></use><use xlink:href="#BgenPttrnElement3" x="-34.87330627441406" y="53.696157455444336" transform="translate(0, 85.5) scale(1) translate(0, -85.5) rotate(90, 0, 85.5)"></use><use xlink:href="#BgenPttrnElement3" x="-2.3733062744140625" y="110.69615745544434" transform="translate(32.5, 142.5) scale(1) translate(-32.5, -142.5) rotate(90, 32.5, 142.5)"></use><use xlink:href="#BgenPttrnElement3" x="-2.3733062744140625" y="110.69615745544434" transform="translate(32.5, 142.5) scale(1) translate(-32.5, -142.5) rotate(90, 32.5, 142.5)"></use></g></g></pattern><symbol id="BgenPttrnElement3"><g class="color_4 fill_color_4" fill="#cf55ca"><path d="M34.873,49.60768508911133A3.5,3.5,0,0,0,31.373,53.107A3.5,3.5,0,0,0,34.873,56.607A3.5,3.5,0,0,0,38.373,53.107A3.5,3.5,0,0,0,34.873,49.607M34.873,51.60768508911133A1.5,1.5,0,0,1,36.373,53.107A1.5,1.5,0,0,1,34.873,54.607A1.5,1.5,0,0,1,33.373,53.107A1.5,1.5,0,0,1,34.873,51.607M28.373,52.60768508911133A2.5,2.5,0,0,0,25.873,55.107C25.873,56.047,26.403,56.857,27.163,57.28768539428711C27.523,57.487,27.933,57.607,28.373,57.60768508911133C28.813,57.607,29.223,57.487,29.583,57.28768539428711C29.953,57.077,30.263,56.777,30.493,56.417686462402344C29.763,55.467,29.373,54.307,29.373,53.10768508911133C29.373,53.017,29.373,52.917,29.373,52.82768630981445C29.073,52.687,28.733,52.607,28.373,52.60768508911133M41.373,52.60768508911133C41.013,52.607,40.673,52.687,40.373,52.82768630981445C40.373,52.917,40.373,53.017,40.373,53.10768508911133C40.373,54.307,39.983,55.467,39.253,56.417686462402344C39.373,56.607,39.503,56.757,39.653,56.90768814086914C39.813,57.057,39.973,57.187,40.163,57.28768539428711C40.523,57.487,40.933,57.607,41.373,57.60768508911133C41.813,57.607,42.223,57.487,42.583,57.28768539428711C43.343,56.857,43.873,56.047,43.873,55.10768508911133A2.5,2.5,0,0,0,41.373,52.607M34.873,58.60768508911133C32.533,58.607,27.873,59.777,27.873,62.10768508911133L27.873,63.60768508911133L41.873,63.60768508911133L41.873,62.10768508911133C41.873,59.777,37.213,58.607,34.873,58.60768508911133M27.583,59.15768814086914C25.653,59.387,22.873,60.367,22.873,62.10768508911133L22.873,63.60768508911133L25.873,63.60768508911133L25.873,61.67768478393555C25.873,60.667,26.563,59.827,27.583,59.15768814086914M42.163,59.15768814086914C43.183,59.827,43.873,60.667,43.873,61.67768478393555L43.873,63.60768508911133L46.873,63.60768508911133L46.873,62.10768508911133C46.873,60.367,44.093,59.387,42.163,59.15768814086914M34.873,60.60768508911133C36.403,60.607,38.113,61.107,39.103,61.60768508911133L30.643,61.60768508911133C31.633,61.107,33.343,60.607,34.873,60.60768508911133Z" transform="matrix(1,0,0,1,0,0)"></path><path d="M38.337,55.607688903808594A3.500000133552871,3.500000133552871,0,0,0,37.056,50.826A3.500000133552871,3.500000133552871,0,0,0,32.275,52.107A3.500000133552871,3.500000133552871,0,0,0,33.556,56.888A3.500000133552871,3.500000133552871,0,0,0,38.337,55.607M36.605,54.607688903808594A1.5000000572369447,1.5000000572369447,0,0,1,34.556,55.156A1.5000000572369447,1.5000000572369447,0,0,1,34.007,53.107A1.5000000572369447,1.5000000572369447,0,0,1,36.056,52.558A1.5000000572369447,1.5000000572369447,0,0,1,36.605,54.607M38.989,48.47852325439453A2.500000095394908,2.500000095394908,0,0,0,38.074,45.063C37.26,44.593,36.294,44.647,35.541,45.090633392333984C35.188,45.302,34.879,45.597,34.659,45.97852325439453C34.439,46.359,34.338,46.774,34.331,47.1864128112793C34.328,47.611,34.433,48.03,34.63,48.40949630737305C35.817,48.252,37.017,48.494,38.056,49.094547271728516C38.134,49.139,38.221,49.189,38.299,49.23454666137695C38.57,49.044,38.809,48.79,38.989,48.47852325439453M32.489,59.73685073852539C32.669,59.425,32.77,59.09,32.799,58.76082992553711C32.721,58.715,32.634,58.665,32.556,58.62083053588867C31.517,58.02,30.707,57.103,30.25,55.99587631225586C30.025,56.004,29.83,56.042,29.625,56.0972900390625C29.415,56.16,29.223,56.234,29.041,56.34896469116211C28.688,56.56,28.379,56.855,28.159,57.23685073852539C27.939,57.618,27.838,58.033,27.831,58.44474411010742C27.824,59.318,28.26,60.182,29.074,60.65191650390625A2.500000095394908,2.500000095394908,0,0,0,32.489,59.736M30.543,51.107688903808594C31.713,49.081,33.03,44.46,31.012,43.295509338378906L29.713,42.545509338378906L22.713,54.669864654541016L24.012,55.419864654541016C26.03,56.584,29.373,53.134,30.543,51.107688903808594M33.712,44.51936340332031C34.478,42.733,35.019,39.835,33.512,38.96538162231445L32.213,38.21538162231445L30.713,40.81345748901367L32.384,41.77845764160156C33.259,42.283,33.642,43.301,33.712,44.51936340332031M26.422,57.14601516723633C25.332,57.694,24.259,57.872,23.384,57.36691665649414L21.713,56.40191650390625L20.213,58.99999237060547L21.512,59.74999237060547C23.019,60.62,25.258,58.702,26.422,57.14601516723633M28.811,50.107688903808594C28.046,51.432,26.758,52.663,25.83,53.27097702026367L30.06,45.944400787353516C29.998,47.051,29.576,48.782,28.811,50.107688903808594Z" transform="matrix(1,0,0,1,0,0)"></path><path d="M31.409,55.60768508911133A3.500000133552871,3.500000133552871,0,0,0,36.19,56.888A3.500000133552871,3.500000133552871,0,0,0,37.471,52.107A3.500000133552871,3.500000133552871,0,0,0,32.69,50.826A3.500000133552871,3.500000133552871,0,0,0,31.409,55.607M33.141,54.60768508911133A1.5000000572369447,1.5000000572369447,0,0,1,33.69,52.558A1.5000000572369447,1.5000000572369447,0,0,1,35.739,53.107A1.5000000572369447,1.5000000572369447,0,0,1,35.19,55.156A1.5000000572369447,1.5000000572369447,0,0,1,33.141,54.607M37.257,59.73685073852539A2.500000095394908,2.500000095394908,0,0,0,40.672,60.652C41.486,60.182,41.923,59.318,41.915,58.44474411010742C41.908,58.033,41.807,57.618,41.587,57.23685073852539C41.367,56.855,41.058,56.56,40.705,56.348960876464844C40.338,56.133,39.924,56.015,39.497,55.99587631225586C39.039,57.103,38.229,58.02,37.19,58.620826721191406C37.112,58.665,37.026,58.715,36.948,58.760826110839844C36.977,59.09,37.077,59.425,37.257,59.73685073852539M30.757,48.478519439697266C30.937,48.79,31.177,49.044,31.448,49.23454666137695C31.526,49.189,31.612,49.139,31.69,49.094547271728516C32.729,48.494,33.929,48.252,35.117,48.40949630737305C35.221,48.21,35.286,48.023,35.341,47.818084716796875C35.391,47.604,35.424,47.401,35.415,47.1864128112793C35.408,46.774,35.307,46.359,35.087,45.978519439697266C34.867,45.597,34.558,45.302,34.205,45.090633392333984C33.453,44.647,32.486,44.593,31.672,45.06345748901367A2.500000095394908,2.500000095394908,0,0,0,30.757,48.478M39.203,51.10768508911133C40.373,53.134,43.717,56.584,45.734,55.419864654541016L47.034,54.669864654541016L40.034,42.545509338378906L38.734,43.295509338378906C36.717,44.46,38.033,49.081,39.203,51.10768508911133M43.325,57.14601516723633C44.489,58.702,46.728,60.62,48.234,59.74999237060547L49.534,58.99999237060547L48.034,56.40191650390625L46.362,57.36691665649414C45.487,57.872,44.415,57.694,43.325,57.14601516723633M36.035,44.51935958862305C36.105,43.301,36.487,42.283,37.362,41.77845764160156L39.034,40.81345748901367L37.534,38.21538162231445L36.234,38.96538162231445C34.728,39.835,35.269,42.733,36.035,44.51935958862305M40.935,50.10768508911133C40.17,48.782,39.748,47.051,39.686,45.944400787353516L43.916,53.27097702026367C42.988,52.663,41.7,51.432,40.935,50.10768508911133Z" transform="matrix(1,0,0,1,0,0)"></path><path d="M19.455,40.70554733276367A3.500000133552871,3.500000133552871,0,0,0,14.674,39.424A3.500000133552871,3.500000133552871,0,0,0,13.393,44.205A3.500000133552871,3.500000133552871,0,0,0,18.174,45.486A3.500000133552871,3.500000133552871,0,0,0,19.455,40.705M17.723,41.70554733276367A1.5000000572369447,1.5000000572369447,0,0,1,17.174,43.754A1.5000000572369447,1.5000000572369447,0,0,1,15.125,43.205A1.5000000572369447,1.5000000572369447,0,0,1,15.674,41.156A1.5000000572369447,1.5000000572369447,0,0,1,17.723,41.705M13.607,36.57638168334961A2.500000095394908,2.500000095394908,0,0,0,10.192,35.661C9.378,36.131,8.941,36.995,8.949,37.868492126464844C8.956,38.28,9.057,38.695,9.276,39.07638168334961C9.497,39.457,9.806,39.752,10.159,39.964271545410156C10.526,40.179,10.941,40.298,11.367,40.31735610961914C11.825,39.21,12.635,38.292,13.674,37.692405700683594C13.752,37.647,13.838,37.597,13.916,37.552406311035156C13.888,37.222,13.787,36.888,13.607,36.57638168334961M20.107,47.834712982177734C19.927,47.523,19.688,47.268,19.416,47.07868576049805C19.338,47.123,19.252,47.173,19.174,47.218685150146484C18.135,47.818,16.935,48.061,15.747,47.90373992919922C15.643,48.102,15.578,48.29,15.523,48.49515151977539C15.473,48.708,15.441,48.912,15.449,49.12682342529297C15.456,49.538,15.557,49.953,15.776,50.334712982177734C15.997,50.716,16.306,51.011,16.659,51.22260284423828C17.411,51.666,18.378,51.72,19.191,51.24977493286133A2.500000095394908,2.500000095394908,0,0,0,20.107,47.834M11.66,45.20554733276367C10.491,43.179,7.148,39.728,5.129,40.893367767333984L3.83,41.643367767333984L10.83,53.76772689819336L12.129,53.01772689819336C14.148,51.852,12.831,47.232,11.66,45.20554733276367M7.539,39.16722106933594C6.375,37.611,4.137,35.693,2.629,36.56324005126953L1.33,37.31324005126953L2.83,39.911319732666016L4.502,38.946319580078125C5.377,38.441,6.449,38.619,7.539,39.16722106933594M14.829,51.79387283325195C14.759,53.012,14.377,54.03,13.502,54.53477478027344L11.83,55.49977493286133L13.33,58.09785079956055L14.629,57.34785079956055C16.137,56.478,15.595,53.58,14.829,51.79387283325195M9.928,46.20554733276367C10.694,47.53,11.116,49.261,11.177,50.36883544921875L6.947,43.042259216308594C7.876,43.649,9.164,44.88,9.928,46.20554733276367Z" transform="matrix(1,0,0,1,0,0)"></path><path d="M15.99,46.70545959472656A3.5000002671057473,3.5000002671057473,0,0,0,19.491,43.205A3.5000002671057473,3.5000002671057473,0,0,0,15.991,39.705A3.5000002671057473,3.5000002671057473,0,0,0,12.491,43.205A3.5000002671057473,3.5000002671057473,0,0,0,15.991,46.705M15.99,44.70550537109375A1.5000001144738917,1.5000001144738917,0,0,1,14.491,43.205A1.5000001144738917,1.5000001144738917,0,0,1,15.991,41.705A1.5000001144738917,1.5000001144738917,0,0,1,17.491,43.205A1.5000001144738917,1.5000001144738917,0,0,1,15.991,44.705M22.49,43.70552444458008A2.5000001907898195,2.5000001907898195,0,0,0,24.991,41.205C24.991,40.266,24.461,39.456,23.7,39.0255241394043C23.341,38.826,22.931,38.706,22.491,38.70563507080078C22.051,38.705,21.641,38.825,21.28,39.0255241394043C20.911,39.235,20.601,39.536,20.371,39.8960075378418C21.1,40.845,21.491,42.006,21.49,43.205535888671875C21.491,43.295,21.491,43.396,21.491,43.48598098754883C21.791,43.626,22.131,43.705,22.49,43.70552444458008M9.49,43.70552444458008C9.85,43.706,10.191,43.626,10.491,43.48598098754883C10.491,43.396,10.491,43.295,10.49,43.205535888671875C10.491,42.005,10.88,40.845,11.611,39.8960075378418C11.491,39.705,11.361,39.555,11.21,39.40544509887695C11.051,39.255,10.891,39.126,10.7,39.0255241394043C10.341,38.825,9.931,38.705,9.491,38.70563507080078C9.05,38.706,8.64,38.826,8.28,39.0255241394043C7.521,39.456,6.99,40.266,6.991,41.20558166503906A2.5000001907898195,2.5000001907898195,0,0,0,9.491,43.705M15.991,37.705657958984375C18.331,37.706,22.991,36.536,22.991,34.20573425292969L22.991,32.70576858520508L8.991,32.70576858520508L8.991,34.20573425292969C8.991,36.536,13.651,37.706,15.991,37.705657958984375M23.281,37.15592956542969C25.211,36.926,27.991,35.946,27.991,34.20573425292969L27.991,32.70576858520508L24.991,32.70576858520508L24.99,34.63539505004883C24.991,35.646,24.301,36.486,23.281,37.15592956542969M8.701,37.15592956542969C7.681,36.486,6.99,35.646,6.99,34.63539505004883L6.991,32.70576858520508L3.991,32.70576858520508L3.991,34.20573425292969C3.99,35.946,6.771,36.926,8.701,37.15592956542969M15.991,35.7056999206543C14.461,35.705,12.751,35.206,11.761,34.70572280883789L20.221,34.70572280883789C19.231,35.205,17.521,35.705,15.991,35.7056999206543Z" transform="matrix(1,0,0,1,0,0)"></path><path d="M12.526,40.70563507080078A3.5000002671057473,3.5000002671057473,0,0,0,13.808,45.486A3.5000002671057473,3.5000002671057473,0,0,0,18.589,44.205A3.5000002671057473,3.5000002671057473,0,0,0,17.308,39.424A3.5000002671057473,3.5000002671057473,0,0,0,12.527,40.705M14.258,41.70559310913086A1.5000001144738917,1.5000001144738917,0,0,1,16.308,41.156A1.5000001144738917,1.5000001144738917,0,0,1,16.857,43.205A1.5000001144738917,1.5000001144738917,0,0,1,14.808,43.754A1.5000001144738917,1.5000001144738917,0,0,1,14.259,41.705M11.874,47.83473587036133A2.5000001907898195,2.5000001907898195,0,0,0,12.789,51.25C13.603,51.72,14.57,51.666,15.322,51.222625732421875C15.675,51.011,15.984,50.716,16.205,50.334625244140625C16.425,49.953,16.526,49.538,16.532,49.12684631347656C16.536,48.701,16.431,48.284,16.234,47.904144287109375C15.046,48.061,13.847,47.818,12.807,47.21869659423828C12.73,47.173,12.644,47.124,12.565,47.07912063598633C12.294,47.269,12.054,47.523,11.874,47.83473587036133M18.374,36.5764045715332C18.195,36.888,18.095,37.223,18.065,37.55284118652344C18.143,37.598,18.23,37.647,18.307,37.69241714477539C19.347,38.292,20.156,39.21,20.614,40.3177604675293C20.839,40.308,21.033,40.271,21.238,40.21604537963867C21.449,40.152,21.641,40.079,21.822,39.96429443359375C22.176,39.752,22.485,39.457,22.705,39.0762939453125C22.925,38.695,23.026,38.28,23.032,37.86851501464844C23.04,36.996,22.604,36.131,21.79,35.661285400390625A2.5000001907898195,2.5000001907898195,0,0,0,18.375,36.576M20.321,45.20543670654297C19.151,47.232,17.835,51.853,19.852,53.017539978027344L21.151,53.76837158203125L28.151,41.64401626586914L26.852,40.89318084716797C24.834,39.729,21.491,43.179,20.321,45.20543670654297M17.152,51.79435729980469C16.386,53.581,15.845,56.479,17.352,57.34766387939453L18.651,58.0984992980957L20.151,55.500423431396484L18.479,54.53492736816406C17.604,54.03,17.222,53.012,17.152,51.79435729980469M24.442,39.16770553588867C25.532,38.619,26.605,38.441,27.479,38.946468353271484L29.151,39.911964416503906L30.651,37.31388854980469L29.352,36.563053131103516C27.845,35.694,25.606,37.611,24.442,39.16770553588867M22.053,46.20539474487305C22.818,44.88,24.106,43.649,25.034,43.042083740234375L20.804,50.36865997314453C20.866,49.261,21.288,47.53,22.053,46.20539474487305Z" transform="matrix(1,0,0,1,0,0)"></path><path d="M19.455,22.901702880859375A3.500000133552871,3.500000133552871,0,0,0,18.174,18.121A3.500000133552871,3.500000133552871,0,0,0,13.393,19.402A3.500000133552871,3.500000133552871,0,0,0,14.674,24.183A3.500000133552871,3.500000133552871,0,0,0,19.455,22.902M17.723,21.901702880859375A1.5000000572369447,1.5000000572369447,0,0,1,15.674,22.451A1.5000000572369447,1.5000000572369447,0,0,1,15.125,20.402A1.5000000572369447,1.5000000572369447,0,0,1,17.174,19.853A1.5000000572369447,1.5000000572369447,0,0,1,17.723,21.902M20.107,15.772537231445312A2.500000095394908,2.500000095394908,0,0,0,19.192,12.358C18.378,11.888,17.412,11.942,16.659,12.38464641571045C16.306,12.597,15.997,12.892,15.777,13.272537231445312C15.557,13.654,15.456,14.069,15.449,14.480427742004395C15.446,14.906,15.551,15.325,15.747,15.703511238098145C16.935,15.547,18.135,15.789,19.174,16.38856315612793C19.252,16.434,19.339,16.484,19.416,16.528562545776367C19.688,16.339,19.927,16.085,20.107,15.772537231445312M13.607,27.030868530273438C13.787,26.719,13.888,26.385,13.916,26.054841995239258C13.839,26.01,13.752,25.96,13.674,25.91484260559082C12.635,25.315,11.825,24.397,11.367,23.28989601135254C11.143,23.299,10.948,23.337,10.743,23.39130401611328C10.533,23.455,10.341,23.529,10.159,23.64297866821289C9.806,23.855,9.497,24.15,9.277,24.530868530273438C9.057,24.912,8.956,25.327,8.949,25.738759994506836C8.942,26.612,9.378,27.476,10.192,27.945932388305664A2.500000095394908,2.500000095394908,0,0,0,13.607,27.031M11.661,18.401702880859375C12.831,16.375,14.148,11.755,12.13,10.589524269104004L10.83,9.839524269104004L3.83,21.96388053894043L5.13,22.71388053894043C7.148,23.879,10.491,20.428,11.661,18.401702880859375M14.829,11.813376426696777C15.596,10.027,16.137,7.13,14.63,6.259397506713867L13.33,5.509397506713867L11.83,8.107473373413086L13.502,9.072473526000977C14.377,9.578,14.759,10.595,14.829,11.813376426696777M7.539,24.44002914428711C6.449,24.989,5.377,25.166,4.502,24.660932540893555L2.83,23.695932388305664L1.33,26.294008255004883L2.63,27.044008255004883C4.137,27.914,6.376,25.997,7.539,24.44002914428711M9.929,17.401702880859375C9.164,18.727,7.876,19.958,6.948,20.56498908996582L11.178,13.238414764404297C11.116,14.346,10.694,16.077,9.929,17.401702880859375Z" transform="matrix(1,0,0,1,0,0)"></path><path d="M12.527,22.901615142822266A3.5000002671057473,3.5000002671057473,0,0,0,17.308,24.183A3.5000002671057473,3.5000002671057473,0,0,0,18.589,19.402A3.5000002671057473,3.5000002671057473,0,0,0,13.808,18.121A3.5000002671057473,3.5000002671057473,0,0,0,12.527,22.902M14.259,21.901657104492188A1.5000001144738917,1.5000001144738917,0,0,1,14.808,19.853A1.5000001144738917,1.5000001144738917,0,0,1,16.857,20.402A1.5000001144738917,1.5000001144738917,0,0,1,16.308,22.451A1.5000001144738917,1.5000001144738917,0,0,1,14.259,21.902M18.375,27.030845642089844A2.5000001907898195,2.5000001907898195,0,0,0,21.79,27.946C22.604,27.476,23.04,26.613,23.033,25.73873519897461C23.026,25.327,22.925,24.912,22.705,24.530956268310547C22.485,24.15,22.176,23.855,21.823,23.642953872680664C21.456,23.428,21.041,23.309,20.614,23.290353775024414C20.157,24.397,19.347,25.315,18.308,25.914831161499023C18.23,25.96,18.143,26.01,18.065,26.055274963378906C18.094,26.385,18.195,26.719,18.375,27.030845642089844M11.875,15.772515296936035C12.055,16.084,12.294,16.339,12.565,16.528995513916016C12.643,16.484,12.73,16.434,12.808,16.388551712036133C13.847,15.789,15.047,15.546,16.234,15.703970909118652C16.339,15.505,16.404,15.317,16.459,15.11199951171875C16.509,14.899,16.541,14.695,16.533,14.480403900146484C16.526,14.069,16.425,13.654,16.205,13.272624969482422C15.985,12.891,15.676,12.596,15.323,12.384622573852539C14.57,11.942,13.604,11.887,12.79,12.35750675201416A2.5000001907898195,2.5000001907898195,0,0,0,11.875,15.773M20.321,18.401811599731445C21.491,20.428,24.834,23.879,26.852,22.714067459106445L28.151,21.964099884033203L21.151,9.839743614196777L19.852,10.589710235595703C17.834,11.755,19.151,16.375,20.321,18.401811599731445M24.442,24.44040870666504C25.606,25.997,27.845,27.914,29.352,27.044193267822266L30.651,26.294227600097656L29.151,23.696149826049805L27.48,24.660778045654297C26.605,25.166,25.532,24.989,24.442,24.44040870666504M17.152,11.813758850097656C17.222,10.596,17.605,9.577,18.48,9.072320938110352L20.151,8.10769271850586L18.651,5.509616851806641L17.352,6.259583950042725C15.845,7.13,16.386,10.028,17.152,11.813758850097656M22.053,17.40185546875C21.288,16.077,20.866,14.346,20.804,13.238590240478516L25.034,20.56516456604004C24.106,19.958,22.818,18.727,22.053,17.40185546875Z" transform="matrix(1,0,0,1,0,0)"></path><path d="M15.991,16.901790618896484A3.5000002671057473,3.5000002671057473,0,0,0,12.491,20.402A3.5000002671057473,3.5000002671057473,0,0,0,15.991,23.902A3.5000002671057473,3.5000002671057473,0,0,0,19.491,20.402A3.5000002671057473,3.5000002671057473,0,0,0,15.991,16.902M15.991,18.90174674987793A1.5000001144738917,1.5000001144738917,0,0,1,17.491,20.402A1.5000001144738917,1.5000001144738917,0,0,1,15.991,21.902A1.5000001144738917,1.5000001144738917,0,0,1,14.491,20.402A1.5000001144738917,1.5000001144738917,0,0,1,15.991,18.902M9.491,19.90172576904297A2.5000001907898195,2.5000001907898195,0,0,0,6.991,22.402C6.991,23.341,7.52,24.152,8.281,24.58172607421875C8.641,24.781,9.051,24.901,9.491,24.901615142822266C9.931,24.902,10.341,24.782,10.701,24.58172607421875C11.071,24.372,11.38,24.072,11.611,23.712108612060547C10.881,22.762,10.491,21.602,10.491,20.40171241760254C10.491,20.312,10.491,20.212,10.491,20.12213706970215C10.191,19.983,9.851,19.902,9.491,19.90172576904297M22.491,19.901723861694336C22.131,19.902,21.791,19.983,21.491,20.122135162353516C21.491,20.212,21.491,20.312,21.491,20.401714324951172C21.491,21.602,21.101,22.762,20.371,23.712108612060547C20.491,23.902,20.621,24.052,20.771,24.20180320739746C20.931,24.352,21.09,24.482,21.281,24.58172607421875C21.641,24.782,22.051,24.902,22.491,24.901615142822266C22.931,24.902,23.341,24.782,23.701,24.581724166870117C24.461,24.152,24.991,23.342,24.991,22.401670455932617A2.5000001907898195,2.5000001907898195,0,0,0,22.491,19.902M15.991,25.901592254638672C13.651,25.902,8.991,27.073,8.991,29.40151596069336L8.99,30.902347564697266L22.99,30.902347564697266L22.991,29.40151596069336C22.991,27.072,18.331,25.902,15.991,25.901592254638672M8.7,26.452186584472656C6.771,26.682,3.99,27.662,3.991,29.40151596069336L3.99,30.902347564697266L6.99,30.902347564697266L6.991,28.97185516357422C6.991,27.961,7.681,27.122,8.7,26.452186584472656M23.28,26.452186584472656C24.3,27.122,24.991,27.962,24.991,28.97185516357422L24.99,30.902347564697266L27.99,30.902347564697266L27.991,29.40151596069336C27.991,27.662,25.21,26.682,23.28,26.452186584472656M15.991,27.901548385620117C17.521,27.902,19.231,28.402,20.221,28.901525497436523L11.761,28.901525497436523C12.751,28.402,14.461,27.902,15.991,27.901548385620117Z" transform="matrix(1,0,0,1,0,0)"></path><path d="M34.874,14.000001907348633A3.5,3.5,0,0,0,38.374,10.5A3.5,3.5,0,0,0,34.874,7A3.5,3.5,0,0,0,31.374,10.5A3.5,3.5,0,0,0,34.874,14M34.874,12.000001907348633A1.5,1.5,0,0,1,33.374,10.5A1.5,1.5,0,0,1,34.874,9A1.5,1.5,0,0,1,36.374,10.5A1.5,1.5,0,0,1,34.874,12M41.374,11.000001907348633A2.5,2.5,0,0,0,43.874,8.5C43.874,7.56,43.344,6.75,42.584,6.320001602172852C42.224,6.12,41.814,6,41.374,6.000001907348633C40.934,6,40.524,6.12,40.164,6.320001602172852C39.794,6.53,39.484,6.83,39.254,7.19000244140625C39.984,8.14,40.374,9.3,40.374,10.500001907348633C40.374,10.59,40.374,10.69,40.374,10.780001640319824C40.674,10.92,41.014,11,41.374,11.000001907348633M28.374,11.000001907348633C28.734,11,29.074,10.92,29.374,10.780001640319824C29.374,10.69,29.374,10.59,29.374,10.500001907348633C29.374,9.3,29.764,8.14,30.494,7.19000244140625C30.374,7,30.244,6.85,30.094,6.700000762939453C29.934,6.55,29.774,6.42,29.584,6.320001602172852C29.224,6.12,28.814,6,28.374,6.000001907348633C27.934,6,27.524,6.12,27.164,6.320001602172852C26.404,6.75,25.874,7.56,25.874,8.500001907348633A2.5,2.5,0,0,0,28.374,11M34.874,5.000001907348633C37.214,5,41.874,3.83,41.874,1.5000019073486328L41.874,0.0000019073488601861754L27.874,0.0000019073488601861754L27.874,1.5000019073486328C27.874,3.83,32.534,5,34.874,5.000001907348633M42.164,4.450000762939453C44.094,4.22,46.874,3.24,46.874,1.5000019073486328L46.874,0.0000019073488601861754L43.874,0.0000019073488601861754L43.874,1.930002212524414C43.874,2.94,43.184,3.78,42.164,4.450000762939453M27.584,4.450000762939453C26.564,3.78,25.874,2.94,25.874,1.930002212524414L25.874,0.0000019073488601861754L22.874,0.0000019073488601861754L22.874,1.5000019073486328C22.874,3.24,25.654,4.22,27.584,4.450000762939453M34.874,3.000001907348633C33.344,3,31.634,2.5,30.644,2.000001907348633L39.104,2.000001907348633C38.114,2.5,36.404,3,34.874,3.000001907348633Z" transform="matrix(1,0,0,1,0,0)"></path><path d="M31.41,8A3.500000133552871,3.500000133552871,0,0,0,32.691,12.781A3.500000133552871,3.500000133552871,0,0,0,37.472,11.5A3.500000133552871,3.500000133552871,0,0,0,36.191,6.719A3.500000133552871,3.500000133552871,0,0,0,31.41,8M33.142,9A1.5000000572369447,1.5000000572369447,0,0,1,35.191,8.451A1.5000000572369447,1.5000000572369447,0,0,1,35.74,10.5A1.5000000572369447,1.5000000572369447,0,0,1,33.691,11.049A1.5000000572369447,1.5000000572369447,0,0,1,33.142,9M30.758,15.129166603088379A2.500000095394908,2.500000095394908,0,0,0,31.673,18.544C32.487,19.014,33.453,18.96,34.206,18.517057418823242C34.559,18.305,34.868,18.01,35.088,17.629167556762695C35.308,17.248,35.409,16.833,35.416,16.421276092529297C35.419,15.996,35.314,15.577,35.117,15.198192596435547C33.93,15.355,32.73,15.113,31.691,14.513140678405762C31.613,14.468,31.526,14.418,31.448,14.373141288757324C31.177,14.563,30.938,14.817,30.758,15.129166603088379M37.258,3.8708362579345703C37.078,4.182,36.977,4.517,36.948,4.846860885620117C37.026,4.892,37.113,4.942,37.191,4.986860275268555C38.23,5.587,39.04,6.504,39.497,7.611810684204102C39.722,7.603,39.917,7.565,40.122,7.510398864746094C40.332,7.447,40.524,7.373,40.706,7.258726119995117C41.059,7.047,41.368,6.752,41.588,6.37083625793457C41.808,5.989,41.909,5.574,41.916,5.162944793701172C41.923,4.289,41.487,3.425,40.673,2.9557723999023438A2.500000095394908,2.500000095394908,0,0,0,37.258,3.871M39.204,12.500000953674316C38.034,14.526,36.717,19.147,38.735,20.312179565429688L40.034,21.062179565429688L47.034,8.937822341918945L45.735,8.187822341918945C43.717,7.023,40.374,10.473,39.204,12.500000953674316M36.035,19.088327407836914C35.269,20.874,34.728,23.772,36.235,24.642305374145508L37.534,25.392305374145508L39.034,22.79422950744629L37.363,21.8292293548584C36.488,21.324,36.105,20.306,36.035,19.088327407836914M43.325,6.461675643920898C44.415,5.913,45.488,5.735,46.363,6.240772247314453L48.034,7.205772399902344L49.534,4.607696533203125L48.235,3.857696533203125C46.728,2.987,44.489,4.905,43.325,6.461675643920898M40.936,13.500000953674316C41.701,12.175,42.989,10.944,43.917,10.336713790893555L39.687,17.663288116455078C39.749,16.556,40.171,14.825,40.936,13.500000953674316Z" transform="matrix(1,0,0,1,0,0)"></path><path d="M38.338,8.000001907348633A3.500000133552871,3.500000133552871,0,0,0,33.557,6.719A3.500000133552871,3.500000133552871,0,0,0,32.276,11.5A3.500000133552871,3.500000133552871,0,0,0,37.057,12.781A3.500000133552871,3.500000133552871,0,0,0,38.338,8M36.606,9.000001907348633A1.5000000572369447,1.5000000572369447,0,0,1,36.057,11.049A1.5000000572369447,1.5000000572369447,0,0,1,34.008,10.5A1.5000000572369447,1.5000000572369447,0,0,1,34.557,8.451A1.5000000572369447,1.5000000572369447,0,0,1,36.606,9M32.49,3.8708362579345703A2.500000095394908,2.500000095394908,0,0,0,29.075,2.955C28.261,3.425,27.824,4.289,27.832,5.162946701049805C27.839,5.574,27.94,5.989,28.16,6.37083625793457C28.38,6.752,28.689,7.047,29.042,7.25872802734375C29.409,7.474,29.823,7.592,30.25,7.611810684204102C30.708,6.504,31.518,5.587,32.557,4.9868621826171875C32.635,4.942,32.721,4.892,32.799,4.84686279296875C32.77,4.517,32.67,4.182,32.49,3.8708362579345703M38.99,15.129167556762695C38.81,14.817,38.57,14.563,38.299,14.37314224243164C38.221,14.418,38.135,14.468,38.057,14.513141632080078C37.018,15.113,35.818,15.355,34.63,15.198192596435547C34.526,15.397,34.461,15.584,34.406,15.789604187011719C34.356,16.003,34.323,16.206,34.332,16.42127799987793C34.339,16.833,34.44,17.248,34.66,17.629167556762695C34.88,18.01,35.189,18.305,35.542,18.517057418823242C36.294,18.96,37.261,19.014,38.075,18.544231414794922A2.500000095394908,2.500000095394908,0,0,0,38.99,15.129M30.544,12.500001907348633C29.374,10.473,26.03,7.023,24.013,8.187824249267578L22.713,8.937824249267578L29.713,21.062179565429688L31.013,20.312179565429688C33.03,19.147,31.714,14.526,30.544,12.500001907348633M26.422,6.461675643920898C25.258,4.905,23.019,2.987,21.513,3.857696533203125L20.213,4.607696533203125L21.713,7.205772399902344L23.385,6.240772247314453C24.26,5.735,25.332,5.913,26.422,6.461675643920898M33.712,19.088327407836914C33.642,20.306,33.26,21.324,32.385,21.82923126220703L30.713,22.794231414794922L32.213,25.39230728149414L33.513,24.64230728149414C35.019,23.772,34.478,20.874,33.712,19.088327407836914M28.812,13.500001907348633C29.577,14.825,29.999,16.556,30.061,17.66329002380371L25.831,10.336713790893555C26.759,10.944,28.047,12.175,28.812,13.500001907348633Z" transform="matrix(1,0,0,1,0,0)"></path><path d="M50.292,22.902141571044922A3.500000133552871,3.500000133552871,0,0,0,55.073,24.183A3.500000133552871,3.500000133552871,0,0,0,56.354,19.402A3.500000133552871,3.500000133552871,0,0,0,51.573,18.121A3.500000133552871,3.500000133552871,0,0,0,50.292,22.902M52.024,21.902141571044922A1.5000000572369447,1.5000000572369447,0,0,1,52.573,19.853A1.5000000572369447,1.5000000572369447,0,0,1,54.622,20.402A1.5000000572369447,1.5000000572369447,0,0,1,54.073,22.451A1.5000000572369447,1.5000000572369447,0,0,1,52.024,21.902M56.14,27.031307220458984A2.500000095394908,2.500000095394908,0,0,0,59.555,27.947C60.369,27.477,60.805,26.613,60.798,25.739198684692383C60.791,25.328,60.69,24.913,60.47,24.531307220458984C60.25,24.15,59.941,23.855,59.588,23.643417358398438C59.221,23.428,58.806,23.31,58.38,23.290334701538086C57.922,24.398,57.112,25.316,56.073,25.915281295776367C55.995,25.961,55.908,26.011,55.831,26.055282592773438C55.859,26.385,55.96,26.72,56.14,27.031307220458984M49.64,15.772976875305176C49.82,16.085,50.059,16.339,50.331,16.529001235961914C50.408,16.484,50.495,16.434,50.573,16.389001846313477C51.612,15.789,52.812,15.547,54,15.703949928283691C54.104,15.505,54.169,15.318,54.224,15.112539291381836C54.274,14.899,54.306,14.696,54.298,14.480866432189941C54.291,14.069,54.19,13.654,53.97,13.272976875305176C53.75,12.892,53.441,12.597,53.088,12.385085105895996C52.335,11.942,51.369,11.888,50.555,12.35791301727295A2.500000095394908,2.500000095394908,0,0,0,49.64,15.773M58.086,18.402141571044922C59.256,20.429,62.599,23.88,64.617,22.714319229125977L65.916,21.964319229125977L58.916,9.839963912963867L57.617,10.589963912963867C55.599,11.755,56.916,16.376,58.086,18.402141571044922M62.208,24.440467834472656C63.371,25.997,65.61,27.915,67.117,27.04444694519043L68.416,26.29444694519043L66.916,23.69637107849121L65.245,24.6613712310791C64.37,25.167,63.297,24.989,62.208,24.440467834472656M54.918,11.813815116882324C54.987,10.596,55.37,9.578,56.245,9.07291316986084L57.916,8.10791301727295L56.416,5.509836673736572L55.117,6.259836673736572C53.61,7.13,54.151,10.028,54.918,11.813815116882324M59.818,17.402141571044922C59.053,16.077,58.631,14.346,58.569,13.23885440826416L62.799,20.5654296875C61.871,19.958,60.583,18.727,59.818,17.402141571044922Z" transform="matrix(1,0,0,1,0,0)"></path><path d="M53.756,16.9022274017334A3.5000002671057473,3.5000002671057473,0,0,0,50.256,20.402A3.5000002671057473,3.5000002671057473,0,0,0,53.756,23.902A3.5000002671057473,3.5000002671057473,0,0,0,57.256,20.402A3.5000002671057473,3.5000002671057473,0,0,0,53.756,16.902M53.756,18.902185440063477A1.5000001144738917,1.5000001144738917,0,0,1,55.256,20.402A1.5000001144738917,1.5000001144738917,0,0,1,53.756,21.902A1.5000001144738917,1.5000001144738917,0,0,1,52.256,20.402A1.5000001144738917,1.5000001144738917,0,0,1,53.756,18.902M47.256,19.902164459228516A2.5000001907898195,2.5000001907898195,0,0,0,44.756,22.402C44.756,23.342,45.286,24.152,46.046,24.582164764404297C46.406,24.782,46.816,24.902,47.256,24.902053833007812C47.696,24.902,48.106,24.782,48.466,24.582164764404297C48.836,24.372,49.146,24.072,49.376,23.711681365966797C48.646,22.762,48.256,21.602,48.256,20.402151107788086C48.256,20.312,48.256,20.212,48.256,20.121707916259766C47.956,19.982,47.616,19.902,47.256,19.902164459228516M60.256,19.902164459228516C59.896,19.902,59.556,19.982,59.256,20.121707916259766C59.255,20.212,59.256,20.312,59.256,20.402151107788086C59.255,21.602,58.866,22.762,58.136,23.711681365966797C58.256,23.902,58.386,24.052,58.536,24.202241897583008C58.696,24.353,58.856,24.482,59.046,24.582164764404297C59.406,24.782,59.816,24.902,60.256,24.902053833007812C60.696,24.902,61.106,24.782,61.466,24.582164764404297C62.226,24.151,62.756,23.342,62.756,22.402109146118164A2.5000001907898195,2.5000001907898195,0,0,0,60.256,19.902M53.756,25.90203094482422C51.416,25.902,46.756,27.072,46.756,29.401954650878906L46.756,30.90192222595215L60.756,30.90192222595215L60.756,29.401954650878906C60.755,27.072,56.096,25.902,53.756,25.90203094482422M46.466,26.451759338378906C44.536,26.681,41.756,27.662,41.756,29.401954650878906L41.756,30.90192222595215L44.756,30.90192222595215L44.756,28.972293853759766C44.756,27.962,45.446,27.121,46.466,26.451759338378906M61.046,26.451759338378906C62.066,27.122,62.756,27.962,62.756,28.972293853759766L62.756,30.90192222595215L65.756,30.90192222595215L65.756,29.401954650878906C65.756,27.662,62.976,26.682,61.046,26.451759338378906M53.756,27.901987075805664C55.286,27.902,56.996,28.402,57.986,28.901966094970703L49.526,28.901966094970703C50.516,28.402,52.226,27.902,53.756,27.901987075805664Z" transform="matrix(1,0,0,1,0,0)"></path><path d="M57.22,22.902053833007812A3.5000002671057473,3.5000002671057473,0,0,0,55.939,18.121A3.5000002671057473,3.5000002671057473,0,0,0,51.158,19.402A3.5000002671057473,3.5000002671057473,0,0,0,52.439,24.183A3.5000002671057473,3.5000002671057473,0,0,0,57.22,22.902M55.488,21.902097702026367A1.5000001144738917,1.5000001144738917,0,0,1,53.439,22.451A1.5000001144738917,1.5000001144738917,0,0,1,52.89,20.402A1.5000001144738917,1.5000001144738917,0,0,1,54.939,19.853A1.5000001144738917,1.5000001144738917,0,0,1,55.488,21.902M57.872,15.772953987121582A2.5000001907898195,2.5000001907898195,0,0,0,56.957,12.358C56.143,11.888,55.177,11.941,54.424,12.385063171386719C54.071,12.597,53.762,12.892,53.542,13.273063659667969C53.322,13.654,53.221,14.07,53.214,14.480843544006348C53.211,14.907,53.316,15.324,53.512,15.703544616699219C54.7,15.547,55.899,15.789,56.939,16.388992309570312C57.017,16.434,57.103,16.484,57.181,16.528568267822266C57.452,16.339,57.692,16.085,57.872,15.772953987121582M51.372,27.031286239624023C51.552,26.72,51.652,26.385,51.681,26.05484962463379C51.603,26.01,51.517,25.96,51.439,25.91526985168457C50.4,25.316,49.59,24.397,49.132,23.289926528930664C48.908,23.299,48.713,23.337,48.508,23.391643524169922C48.298,23.455,48.106,23.528,47.924,23.643394470214844C47.571,23.856,47.262,24.151,47.042,24.531394958496094C46.822,24.913,46.721,25.328,46.714,25.73917579650879C46.706,26.612,47.143,27.477,47.957,27.94640350341797A2.5000001907898195,2.5000001907898195,0,0,0,51.372,27.031M49.426,18.402252197265625C50.596,16.376,51.912,11.755,49.895,10.590150833129883L48.595,9.83931827545166L41.595,21.963674545288086L42.895,22.714506149291992C44.912,23.879,48.256,20.429,49.426,18.402252197265625M52.594,11.813331604003906C53.36,10.027,53.902,7.129,52.395,6.26002311706543L51.095,5.509191036224365L49.595,8.107267379760742L51.267,9.072760581970215C52.142,9.578,52.524,10.595,52.594,11.813331604003906M45.304,24.439983367919922C44.214,24.988,43.142,25.167,42.267,24.661218643188477L40.595,23.695724487304688L39.095,26.29380226135254L40.395,27.044633865356445C41.901,27.914,44.141,25.996,45.304,24.439983367919922M47.694,17.40229606628418C46.929,18.728,45.641,19.958,44.713,20.56560516357422L48.943,13.239030838012695C48.881,14.347,48.459,16.078,47.694,17.40229606628418Z" transform="matrix(1,0,0,1,0,0)"></path><path d="M50.292,40.70598602294922A3.500000133552871,3.500000133552871,0,0,0,51.572,45.487A3.500000133552871,3.500000133552871,0,0,0,56.354,44.206A3.500000133552871,3.500000133552871,0,0,0,55.072,39.425A3.500000133552871,3.500000133552871,0,0,0,50.291,40.706M52.024,41.70598602294922A1.5000000572369447,1.5000000572369447,0,0,1,54.072,41.157A1.5000000572369447,1.5000000572369447,0,0,1,54.621,43.206A1.5000000572369447,1.5000000572369447,0,0,1,52.572,43.755A1.5000000572369447,1.5000000572369447,0,0,1,52.023,41.706M49.64,47.83515167236328A2.500000095394908,2.500000095394908,0,0,0,50.554,51.25C51.369,51.72,52.335,51.666,53.088,51.22304153442383C53.441,51.011,53.75,50.716,53.97,50.33515167236328C54.19,49.954,54.291,49.539,54.298,49.127262115478516C54.301,48.702,54.196,48.283,53.999,47.904178619384766C52.811,48.061,51.612,47.819,50.573,47.2191276550293C50.495,47.174,50.408,47.124,50.33,47.07912826538086C50.059,47.269,49.819,47.523,49.64,47.83515167236328M56.14,36.576820373535156C55.959,36.888,55.859,37.223,55.83,37.5528450012207C55.908,37.598,55.995,37.648,56.073,37.692848205566406C57.112,38.293,57.921,39.21,58.379,40.31779479980469C58.604,40.309,58.798,40.271,59.004,40.21638488769531C59.213,40.153,59.406,40.079,59.588,39.9647102355957C59.941,39.753,60.25,39.458,60.47,39.076820373535156C60.69,38.696,60.791,38.28,60.798,37.86893081665039C60.805,36.996,60.369,36.132,59.555,35.66175842285156A2.500000095394908,2.500000095394908,0,0,0,56.139,36.577M58.086,45.20598602294922C56.916,47.232,55.599,51.853,57.617,53.018165588378906L58.916,53.768165588378906L65.916,41.64380645751953L64.617,40.89380645751953C62.599,39.729,59.256,43.179,58.086,45.20598602294922M54.917,51.7943115234375C54.151,53.581,53.61,56.478,55.117,57.34829330444336L56.416,58.09829330444336L57.916,55.500213623046875L56.245,54.535213470458984C55.37,54.03,54.987,53.012,54.917,51.7943115234375M62.207,39.167659759521484C63.297,38.619,64.37,38.442,65.245,38.94675827026367L66.916,39.91175842285156L68.416,37.313682556152344L67.117,36.563682556152344C65.61,35.693,63.371,37.611,62.207,39.167659759521484M59.818,46.20598602294922C60.583,44.881,61.871,43.65,62.799,43.04269790649414L58.569,50.3692741394043C58.631,49.262,59.053,47.531,59.818,46.20598602294922Z" transform="matrix(1,0,0,1,0,0)"></path><path d="M57.22,40.70607376098633A3.5000002671057473,3.5000002671057473,0,0,0,52.439,39.425A3.5000002671057473,3.5000002671057473,0,0,0,51.157,44.206A3.5000002671057473,3.5000002671057473,0,0,0,55.938,45.487A3.5000002671057473,3.5000002671057473,0,0,0,57.22,40.706M55.488,41.706031799316406A1.5000001144738917,1.5000001144738917,0,0,1,54.938,43.755A1.5000001144738917,1.5000001144738917,0,0,1,52.889,43.206A1.5000001144738917,1.5000001144738917,0,0,1,53.438,41.157A1.5000001144738917,1.5000001144738917,0,0,1,55.487,41.706M51.372,36.57684326171875A2.5000001907898195,2.5000001907898195,0,0,0,47.957,35.662C47.143,36.132,46.706,36.995,46.714,37.868953704833984C46.721,38.28,46.822,38.696,47.042,39.07673263549805C47.262,39.458,47.57,39.753,47.924,39.9647331237793C48.29,40.18,48.706,40.298,49.133,40.31733703613281C49.59,39.211,50.399,38.292,51.439,37.69285583496094C51.517,37.648,51.603,37.597,51.682,37.55241394042969C51.652,37.223,51.552,36.889,51.372,36.57684326171875M57.872,47.835174560546875C57.692,47.523,57.452,47.269,57.182,47.07869338989258C57.103,47.123,57.016,47.174,56.939,47.219139099121094C55.899,47.819,54.7,48.062,53.513,47.903717041015625C53.407,48.103,53.343,48.291,53.288,48.495689392089844C53.237,48.709,53.206,48.912,53.214,49.12728500366211C53.22,49.539,53.321,49.954,53.542,50.33506393432617C53.762,50.716,54.071,51.011,54.424,51.22306442260742C55.177,51.666,56.143,51.72,56.957,51.25018310546875A2.5000001907898195,2.5000001907898195,0,0,0,57.871,47.835M49.426,45.205875396728516C48.256,43.179,44.912,39.728,42.895,40.89362335205078L41.596,41.64358901977539L48.596,53.7679443359375L49.895,53.01797866821289C51.912,51.853,50.596,47.232,49.426,45.205875396728516M45.305,39.16727828979492C44.141,37.611,41.902,35.693,40.395,36.56349563598633L39.096,37.31346130371094L40.596,39.911537170410156L42.267,38.9469108581543C43.142,38.442,44.215,38.619,45.305,39.16727828979492M52.595,51.79393005371094C52.524,53.012,52.142,54.03,51.267,54.53536605834961L49.596,55.499996185302734L51.096,58.09807205200195L52.395,57.348106384277344C53.902,56.478,53.36,53.58,52.595,51.79393005371094M47.694,46.205833435058594C48.458,47.531,48.88,49.262,48.943,50.36909866333008L44.713,43.04252243041992C45.64,43.65,46.928,44.881,47.694,46.205833435058594Z" transform="matrix(1,0,0,1,0,0)"></path><path d="M53.756,46.70589828491211A3.5000002671057473,3.5000002671057473,0,0,0,57.255,43.206A3.5000002671057473,3.5000002671057473,0,0,0,53.755,39.706A3.5000002671057473,3.5000002671057473,0,0,0,50.256,43.206A3.5000002671057473,3.5000002671057473,0,0,0,53.756,46.706M53.756,44.70594024658203A1.5000001144738917,1.5000001144738917,0,0,1,52.255,43.206A1.5000001144738917,1.5000001144738917,0,0,1,53.755,41.706A1.5000001144738917,1.5000001144738917,0,0,1,55.255,43.206A1.5000001144738917,1.5000001144738917,0,0,1,53.755,44.706M60.256,43.705963134765625A2.5000001907898195,2.5000001907898195,0,0,0,62.756,41.206C62.756,40.266,62.226,39.456,61.466,39.025962829589844C61.106,38.826,60.696,38.706,60.256,38.70607376098633C59.815,38.706,59.405,38.826,59.046,39.025962829589844C58.676,39.236,58.366,39.535,58.136,39.89558029174805C58.866,40.846,59.255,42.006,59.256,43.20597457885742C59.255,43.296,59.256,43.395,59.256,43.48555374145508C59.556,43.625,59.896,43.706,60.256,43.705963134765625M47.256,43.705963134765625C47.616,43.706,47.956,43.625,48.256,43.48555374145508C48.256,43.395,48.256,43.296,48.256,43.20597457885742C48.255,42.006,48.646,40.846,49.376,39.89558029174805C49.256,39.706,49.126,39.556,48.976,39.4058837890625C48.816,39.256,48.656,39.126,48.466,39.025962829589844C48.105,38.826,47.696,38.706,47.256,38.70607376098633C46.816,38.706,46.406,38.826,46.046,39.025962829589844C45.286,39.456,44.756,40.266,44.756,41.20602035522461A2.5000001907898195,2.5000001907898195,0,0,0,47.256,43.706M53.756,37.70609664916992C56.096,37.706,60.756,36.535,60.756,34.206172943115234L60.756,32.70534133911133L46.756,32.70534133911133L46.756,34.206172943115234C46.756,36.535,51.416,37.706,53.756,37.70609664916992M61.046,37.15550231933594C62.976,36.926,65.756,35.946,65.756,34.206172943115234L65.756,32.70534133911133L62.756,32.70534133911133L62.756,34.635833740234375C62.756,35.646,62.066,36.486,61.046,37.15550231933594M46.466,37.15550231933594C45.446,36.486,44.756,35.646,44.756,34.635833740234375L44.756,32.70534133911133L41.756,32.70534133911133L41.756,34.206172943115234C41.756,35.945,44.536,36.926,46.466,37.15550231933594M53.756,35.706138610839844C52.225,35.706,50.515,35.206,49.526,34.70616149902344L57.986,34.70616149902344C56.995,35.206,55.285,35.706,53.756,35.706138610839844Z" transform="matrix(1,0,0,1,0,0)"></path></g></symbol></defs><rect width="100%" height="100%" id="BgenPttrnRctLayer1" fill="url(&quot;#BgenPttrnLayer1&quot;)"></rect><rect width="100%" height="100%" id="BgenPttrnRctLayer2" fill="url(&quot;#BgenPttrnLayer2&quot;)"></rect></svg>